<svg width="41" height="20" viewBox="0 0 41 20" fill="none" xmlns="http://www.w3.org/2000/svg">
<g clip-path="url(#clip0_287_2481)">
<path fill-rule="evenodd" clip-rule="evenodd" d="M40.9928 12.4126C41.0056 12.1154 40.9586 11.8188 40.8546 11.5406C40.7505 11.2623 40.5915 11.0085 40.3873 10.7943C39.1235 9.39481 37.782 7.88565 36.1594 6.03594C35.9879 5.83551 35.7739 5.67691 35.5333 5.57157C35.2927 5.46624 35.0318 5.41687 34.7698 5.42748H33.2159C32.5575 5.42748 31.8768 5.42155 31.2058 5.43372C31.135 5.45065 31.0606 5.4396 30.9975 5.40312C30.9623 5.33818 30.9514 5.26251 30.9668 5.1901V5.06235C30.9801 4.19225 30.9945 3.29806 30.9349 2.41579C30.9293 2.08098 30.8562 1.75077 30.7202 1.44547C30.5841 1.14017 30.388 0.866108 30.1436 0.640036C29.8993 0.413965 29.6119 0.240533 29.2991 0.130513C28.9863 0.0204923 28.6545 -0.0238624 28.3242 8.64845e-05H19.7576C18.0902 0.00617106 16.4225 0.00617106 14.7546 8.64845e-05H14.7438C14.2928 -0.0142652 13.8475 0.104031 13.4617 0.340561C13.0759 0.577092 12.7664 0.921655 12.5706 1.33257C12.3236 1.85567 12.2108 2.43333 12.2425 3.01207C12.2425 7.36863 12.2425 11.7271 12.2425 16.0877C12.2394 16.2603 12.2462 16.4331 12.263 16.6049C12.2744 16.8054 12.3249 17.0017 12.4115 17.1825C12.498 17.3632 12.619 17.5247 12.7675 17.6581C12.916 17.7915 13.0891 17.894 13.2768 17.9597C13.4645 18.0253 13.6632 18.0529 13.8615 18.0408C14.837 18.0469 15.738 18.0469 16.6143 18.0408C16.6425 18.0323 16.6722 18.0299 16.7014 18.0337C16.7307 18.0375 16.7588 18.0476 16.784 18.0631C16.8092 18.0786 16.8308 18.0992 16.8476 18.1237C16.8644 18.1482 16.876 18.1758 16.8815 18.2051C17.0713 18.7339 17.4183 19.1903 17.875 19.5117C18.3317 19.8331 18.8756 20.0039 19.432 20.0002C19.9881 20.0111 20.5337 19.8456 20.9919 19.5269C21.4502 19.2082 21.7981 18.7525 21.9869 18.2235C21.9909 18.1939 22.0007 18.1654 22.0159 18.1397C22.031 18.1141 22.0511 18.0917 22.075 18.0741C22.0989 18.0565 22.1261 18.044 22.1549 18.0372C22.1837 18.0305 22.2135 18.0297 22.2426 18.0349C25.9421 18.047 29.718 18.0469 33.787 18.0408C33.8199 18.0336 33.8538 18.0331 33.8868 18.0393C33.9198 18.0456 33.9512 18.0586 33.9793 18.0773C34.0073 18.096 34.0313 18.1201 34.05 18.1483C34.0687 18.1766 34.0816 18.2083 34.088 18.2416C34.273 18.7636 34.6156 19.2136 35.0673 19.5281C35.5191 19.8425 36.0571 20.0054 36.6054 19.9939H36.6235C37.1677 20.0068 37.7028 19.8503 38.1562 19.5456C38.6096 19.2409 38.9595 18.8027 39.1584 18.2904C39.2529 18.0774 39.2788 18.0409 39.4389 18.0349C39.6505 18.0582 39.8646 18.0325 40.0649 17.9597C40.2652 17.8869 40.4464 17.7687 40.5948 17.6145C40.7433 17.4602 40.855 17.2737 40.9214 17.0693C40.9879 16.8648 41.0073 16.6476 40.9783 16.4344C40.9783 15.9537 40.9783 15.4731 40.9783 14.9985C40.9777 14.1467 40.9747 13.2705 40.9928 12.4126ZM14.0233 16.7083C13.5978 16.7083 13.5726 16.6595 13.572 16.2944V15.8503C13.5678 11.5363 13.5642 7.07046 13.5768 2.68348C13.5768 1.74645 14.0053 1.33257 14.9556 1.33257H28.347C28.5079 1.30936 28.6717 1.32168 28.8273 1.36882C28.9829 1.41596 29.1266 1.49681 29.2483 1.60561C29.3699 1.7144 29.4668 1.84859 29.5321 1.99896C29.5974 2.14934 29.6296 2.3122 29.6265 2.4764C29.6437 2.66449 29.6504 2.85352 29.6464 3.04237V6.40107C29.6464 9.66849 29.6464 13.0515 29.6572 16.3797C29.674 16.4798 29.6568 16.5827 29.6085 16.6718C29.5231 16.722 29.4226 16.7394 29.3256 16.7205C28.2736 16.7144 27.2282 16.7083 26.1612 16.7083C24.9419 16.7083 23.6936 16.7144 22.3792 16.7205C22.3424 16.7328 22.3032 16.7364 22.2647 16.7312C22.2263 16.726 22.1895 16.7121 22.1571 16.6905C22.1247 16.6688 22.0976 16.6399 22.0778 16.6061C22.058 16.5723 22.046 16.5344 22.0428 16.4953C21.8878 15.927 21.5516 15.4263 21.0864 15.071C20.6212 14.7156 20.053 14.5255 19.47 14.53H19.4393C18.8629 14.5241 18.3001 14.707 17.8351 15.0514C17.3702 15.3958 17.028 15.8832 16.8598 16.4406C16.8558 16.4871 16.8418 16.5321 16.8186 16.5725C16.7955 16.6129 16.7638 16.6477 16.7259 16.6744C16.6881 16.7011 16.6448 16.7191 16.5993 16.727C16.5538 16.735 16.5072 16.7328 16.4626 16.7205C15.9414 16.7022 15.413 16.7083 14.9027 16.7083C14.609 16.7083 14.3164 16.7144 14.0233 16.7083ZM18.4505 16.2763C18.578 16.1447 18.73 16.04 18.8978 15.9679C19.0655 15.8959 19.2456 15.858 19.4278 15.8565H19.4332C19.8 15.8588 20.1517 16.0046 20.4145 16.2633C20.6774 16.5219 20.8311 16.8731 20.8434 17.2437C20.8482 17.4292 20.8159 17.6139 20.7484 17.7865C20.6808 17.959 20.5794 18.116 20.4503 18.2479C20.2566 18.4468 20.0094 18.5836 19.7394 18.6418C19.4693 18.7 19.1884 18.677 18.9312 18.5753C18.6741 18.4736 18.4521 18.2976 18.2928 18.0696C18.1336 17.8416 18.044 17.5714 18.0352 17.2924C18.0344 17.1037 18.0707 16.9166 18.142 16.7422C18.2133 16.5677 18.3181 16.4095 18.4505 16.2763ZM39.6561 15.4427V16.3797C39.6561 16.6657 39.6344 16.6901 39.4972 16.7083C39.3408 16.7387 39.3089 16.7386 39.2336 16.4587C39.0553 15.8995 38.7069 15.4116 38.2381 15.0642C37.7694 14.7167 37.2041 14.5277 36.6229 14.524H36.6163C36.026 14.5251 35.4523 14.7212 34.9827 15.0826C34.5131 15.444 34.1732 15.951 34.0151 16.5259C33.9658 16.7145 33.9441 16.7205 33.7744 16.7205C33.069 16.7083 32.1386 16.7022 31.1979 16.7205C31.1294 16.728 31.06 16.7197 30.9951 16.6961C30.9664 16.64 30.9565 16.576 30.9668 16.5137C30.9801 13.4471 30.9807 10.3256 30.9668 6.97299C30.9555 6.90657 30.9659 6.83834 30.9963 6.77839C31.0562 6.74728 31.1251 6.73863 31.1907 6.75402C31.9592 6.76619 32.7398 6.75997 33.4945 6.75997H34.3973C34.6116 6.7133 34.8352 6.73937 35.0335 6.83394C35.2318 6.92852 35.3937 7.08655 35.4944 7.28345H35.2489C34.8077 7.28345 34.3859 7.27737 33.964 7.28345C33.7712 7.26799 33.5773 7.29454 33.3956 7.36159C33.2139 7.42864 33.0486 7.53436 32.911 7.67176C32.7734 7.80916 32.6667 7.97498 32.5981 8.15781C32.5295 8.34065 32.5007 8.5364 32.5135 8.73151C32.5051 9.42515 32.5045 10.1554 32.5135 10.9098C32.4933 11.1124 32.5185 11.3169 32.5873 11.5082C32.6561 11.6995 32.7667 11.8726 32.9108 12.0147C33.0549 12.1569 33.2289 12.2641 33.4198 12.3288C33.6107 12.3935 33.8136 12.4138 34.0133 12.3882H34.2318C35.9338 12.3943 37.6941 12.3944 39.4262 12.3823C39.4971 12.3646 39.572 12.3754 39.6351 12.4126C39.6678 12.4783 39.6786 12.5531 39.6658 12.6256C39.6519 13.5626 39.6543 14.5178 39.6561 15.4427ZM38.778 11.0557C38.2111 11.0618 37.6436 11.0557 37.0767 11.0557C36.1137 11.0557 35.1225 11.0557 34.1451 11.0679C34.0521 11.0811 33.9574 11.0619 33.8767 11.0132C33.8347 10.9374 33.8188 10.8496 33.8316 10.7637C33.8532 10.1187 33.8436 9.44947 33.8352 8.85926C33.8219 8.78552 33.8368 8.70939 33.8767 8.64625C33.9274 8.61581 33.9866 8.60295 34.0452 8.6097H34.0578C34.8402 8.62187 35.6226 8.61579 36.4905 8.6097C36.5424 8.60251 36.5953 8.60959 36.6438 8.6299C36.6922 8.65022 36.7344 8.68301 36.7661 8.72527L37.6586 9.73541C38.0468 10.1796 38.4356 10.6178 38.8238 11.062C38.809 11.057 38.7935 11.0547 38.778 11.0557ZM36.6289 15.8565H36.6397C37.0043 15.8573 37.3537 16.0038 37.6117 16.2641C37.7455 16.3976 37.8514 16.5568 37.9231 16.7324C37.9949 16.908 38.031 17.0965 38.0293 17.2865C38.0287 17.4705 37.992 17.6525 37.9213 17.8221C37.8507 17.9918 37.7474 18.1456 37.6176 18.2746C37.4877 18.4036 37.3338 18.5053 37.1649 18.5738C36.9959 18.6423 36.8152 18.6762 36.6331 18.6736C36.4466 18.6751 36.2617 18.6388 36.0894 18.5667C35.917 18.4945 35.7607 18.3881 35.6298 18.2538C35.4988 18.1228 35.3954 17.9662 35.3259 17.7936C35.2564 17.6211 35.2222 17.4362 35.2254 17.2499C35.2392 16.8804 35.3922 16.5301 35.6532 16.271C35.9141 16.0119 36.2632 15.8637 36.6289 15.8565ZM9.7064 6.23083C9.64009 6.2207 9.57301 6.21662 9.50598 6.21865H0.896134C0.637091 6.19113 0.377735 6.26738 0.173943 6.43138C0.114808 6.49442 0.0691231 6.56929 0.0397206 6.65093C0.0103181 6.73257 -0.00217187 6.81941 0.00302424 6.90614C0.0109374 7.01317 0.0420873 7.11719 0.0942692 7.21067C0.146451 7.30414 0.218371 7.38469 0.304915 7.44686C0.39146 7.50902 0.4905 7.5511 0.594978 7.57015C0.699455 7.58921 0.8068 7.58475 0.909376 7.55708H9.65525C9.74533 7.56762 9.8366 7.55922 9.92333 7.53242C10.0101 7.50563 10.0904 7.46105 10.1592 7.4014C10.2281 7.34176 10.284 7.26824 10.3235 7.18571C10.363 7.10318 10.3853 7.0135 10.3888 6.92189C10.3923 6.83027 10.3771 6.73869 10.3441 6.65331C10.311 6.56792 10.2609 6.49062 10.1969 6.42573C10.1328 6.36084 10.0562 6.30983 9.97176 6.27629C9.88736 6.24275 9.79702 6.22743 9.7064 6.23083ZM9.75456 9.36433C9.66042 9.35422 9.56573 9.35014 9.47109 9.35215H9.0191C6.87136 9.35215 4.72481 9.35404 2.57946 9.35809C2.41266 9.35501 2.24607 9.37139 2.08296 9.40682C1.94769 9.43869 1.82788 9.51781 1.74465 9.63023C1.66142 9.74266 1.62009 9.88131 1.62797 10.0215C1.62254 10.1597 1.66425 10.2955 1.7461 10.4063C1.82795 10.517 1.94496 10.596 2.07754 10.63C2.24119 10.6713 2.40967 10.6896 2.57827 10.6846H9.50358C9.53247 10.6846 9.56377 10.6906 9.59326 10.6906C9.64923 10.6906 9.70942 10.6845 9.7696 10.6784C9.85593 10.6751 9.94075 10.6546 10.0191 10.6178C10.0975 10.581 10.1678 10.5288 10.226 10.4642C10.2841 10.3996 10.329 10.324 10.3579 10.2417C10.3868 10.1594 10.3992 10.0722 10.3943 9.98497C10.3931 9.90161 10.3755 9.81927 10.3426 9.74284C10.3096 9.6664 10.2621 9.59734 10.2026 9.53962C10.1431 9.4819 10.0728 9.43661 9.99593 9.40652C9.91903 9.37643 9.83699 9.36215 9.75456 9.36433ZM9.52644 12.4794H4.26039C3.59055 12.4794 3.4425 12.8263 3.43588 13.1244C3.42943 13.2109 3.44093 13.2979 3.46964 13.3796C3.49834 13.4613 3.54363 13.5362 3.60259 13.5992C3.79161 13.756 4.03355 13.8324 4.27725 13.8122C4.9495 13.8061 5.62115 13.806 6.2934 13.806L7.21841 13.8122H9.5415C9.78722 13.8327 10.0315 13.7586 10.2258 13.6051C10.2834 13.5425 10.3275 13.4688 10.3556 13.3882C10.3837 13.3076 10.395 13.2218 10.3889 13.1366C10.3813 13.0335 10.352 12.9335 10.303 12.8428C10.254 12.7521 10.1864 12.6729 10.1048 12.6107C10.0232 12.5485 9.92935 12.5047 9.82962 12.4821C9.72989 12.4595 9.62653 12.4584 9.52644 12.4794Z" fill="#A39161"/>
</g>
<defs>
<clipPath id="clip0_287_2481">
<rect width="41" height="20" fill="white"/>
</clipPath>
</defs>
</svg>
