<svg width="30" height="30" viewBox="0 0 30 30" fill="none" xmlns="http://www.w3.org/2000/svg">
<path d="M27.8571 9.96429C27.8571 9.10715 27.75 8.25 27.5357 7.60715C27.3214 6.96429 27 6.32143 26.5714 6C26.25 5.57143 25.7143 5.25 25.1786 5.03572C24.6429 4.82143 24.1071 4.60715 23.5714 4.5C23.1429 4.28572 22.6071 4.28572 21.9643 4.28572C21.4286 4.28572 20.7857 4.39286 20.0357 4.71429C19.2857 5.03572 18.75 5.35715 18.2143 5.78572C17.6786 6.21429 17.1429 6.64286 16.7143 6.96429C16.2857 7.28572 15.9643 7.71429 15.75 8.03572C15.5357 8.25 15.3214 8.35715 14.8929 8.35715C14.4643 8.35715 14.25 8.25 14.0357 8.03572C13.8214 7.71429 13.3929 7.39286 13.0714 6.96429C12.6429 6.64286 12.2143 6.21429 11.5714 5.78572C11.0357 5.35715 10.3929 5.03572 9.75 4.71429C9.21429 4.39286 8.57143 4.28572 8.03571 4.28572C7.39286 4.28572 6.85714 4.28572 6.32143 4.39286C5.78571 4.5 5.35714 4.71429 4.82143 4.92857C4.28571 5.14286 3.75 5.57143 3.42857 5.89286C3.10714 6.21429 2.78571 6.85715 2.46429 7.60715C2.14286 8.35715 2.14286 9.10715 2.14286 9.96429C2.14286 11.8929 3.21429 13.8214 5.25 15.8571L15 25.2857L24.75 15.9643C26.7857 13.8214 27.8571 11.8929 27.8571 9.96429ZM30 9.96429C30 12.4286 28.7143 14.8929 26.1429 17.4643L15.75 27.5357C15.5357 27.75 15.3214 27.8571 15 27.8571C14.6786 27.8571 14.4643 27.75 14.25 27.5357L3.75 17.4643C3.64286 17.3571 3.53571 17.25 3.32143 17.0357C3.10714 16.8214 2.78571 16.5 2.35714 15.9643C1.92857 15.4286 1.60714 14.8929 1.17857 14.3571C0.75 13.8214 0.535714 13.0714 0.321429 12.3214C0.107143 11.5714 0 10.7143 0 9.96429C0 7.5 0.75 5.57143 2.14286 4.17858C3.53571 2.78572 5.46429 2.14286 8.03571 2.14286C8.67857 2.14286 9.42857 2.25 10.1786 2.46429C10.9286 2.67857 11.5714 3 12.2143 3.42857C12.8571 3.85715 13.3929 4.17858 13.8214 4.60715C14.1429 4.92858 14.5714 5.35715 15 5.78572C15.4286 5.35715 15.8571 5.03572 16.2857 4.60715C16.7143 4.28572 17.25 3.85715 17.8929 3.42857C18.5357 3 19.1786 2.67857 19.9286 2.46429C20.6786 2.25 21.3214 2.14286 22.0714 2.14286C24.5357 2.14286 26.5714 2.78572 27.9643 4.17858C29.3571 5.57143 30 7.5 30 9.96429Z" fill="black"/>
</svg>
